<svg width="50" height="50" viewBox="0 0 50 50" fill="none" xmlns="http://www.w3.org/2000/svg"><path d="M29.6265 13.3175L19.9755 26.242L17.1005 30.0945L13.7815 26.616L16.658 22.7685L25.813 10.508L29.6265 13.3175Z" fill="#FFA500"/><path d="M25.9275 32.4775L22.824 36.092L19.5415 32.6525L17.0985 30.0955L13.7815 26.615L16.656 22.77L19.976 26.241L22.644 29.04L25.9275 32.4775Z" fill="#5E17EB"/><path fill-rule="evenodd" clip-rule="evenodd" d="M13.7819 26.6154L16.6565 22.7705L19.976 26.241L19.9761 26.2412L19.9755 26.242L17.1005 30.0945L14.5861 27.4593L13.7819 26.6154Z" fill="#0098FF"/><path d="M20.3745 44.908L30.0265 31.9835L32.902 28.132L36.2185 31.6105L33.344 35.457L24.189 47.718L20.3745 44.908Z" fill="#FF1616"/><path d="M24.074 25.749L27.177 22.135L30.46 25.573L32.904 28.131L36.2185 31.6115L33.346 35.456L30.0255 31.9845L27.3585 29.1855L24.074 25.749Z" fill="#AEC843"/><path fill-rule="evenodd" clip-rule="evenodd" d="M33.3453 35.4553L30.0256 31.9847L30.0265 31.9835L32.902 28.132L35.4149 30.7676L36.2181 31.6111L33.3453 35.4553Z" fill="#0098FF"/><path d="M26.4785 7.2825C27.8592 7.2825 28.9785 6.16321 28.9785 4.7825C28.9785 3.40179 27.8592 2.2825 26.4785 2.2825C25.0978 2.2825 23.9785 3.40179 23.9785 4.7825C23.9785 6.16321 25.0978 7.2825 26.4785 7.2825Z" fill="#FA4D68"/></svg>